<svg xmlns="http://www.w3.org/2000/svg" viewBox="0 0 512 512" role="img" aria-labelledby="title">
  <title>DJMAX 大興奮 Maskable</title>
  <defs>
    <radialGradient id="ring" cx="50%" cy="42%" r="64%">
      <stop offset="0%" stop-color="#10313d"/>
      <stop offset="100%" stop-color="#061114"/>
    </radialGradient>
    <linearGradient id="mainText" x1="0" y1="0" x2="1" y2="1">
      <stop offset="0%" stop-color="#fffde7"/>
      <stop offset="28%" stop-color="#fff27a"/>
      <stop offset="56%" stop-color="#ffe45a"/>
      <stop offset="78%" stop-color="#ffd747"/>
      <stop offset="100%" stop-color="#ffc107"/>
    </linearGradient>
    <filter id="glow" x="-50%" y="-50%" width="200%" height="200%">
      <feGaussianBlur stdDeviation="4" result="blur"/>
      <feMerge>
        <feMergeNode in="blur"/>
        <feMergeNode in="SourceGraphic"/>
      </feMerge>
    </filter>
  </defs>
  <rect width="512" height="512" fill="#061114"/>
  <circle cx="256" cy="256" r="206" fill="url(#ring)"/>
  <circle cx="256" cy="256" r="198" fill="none" stroke="#2a4959" stroke-width="12"/>

  <g fill="#faff7e" opacity="0.9" filter="url(#glow)">
    <path d="M154 152l10 22 22 10-22 10-10 22-10-22-22-10 22-10z"/>
    <path d="M364 138l10 22 22 10-22 10-10 22-10-22-22-10 22-10z"/>
    <path d="M366 336l10 22 22 10-22 10-10 22-10-22-22-10 22-10z"/>
    <path d="M150 346l10 22 22 10-22 10-10 22-10-22-22-10 22-10z"/>
  </g>

  <text x="256" y="214" text-anchor="middle" fill="#ebf7ff" font-size="44" font-weight="700" font-family="'Zen Kaku Gothic New', sans-serif" letter-spacing="4">DJMAX</text>
  <text x="256" y="314" text-anchor="middle" fill="url(#mainText)" font-size="94" font-weight="700" font-family="'Zen Kaku Gothic New', sans-serif" filter="url(#glow)">大興奮</text>
</svg>
